<svg xmlns:xlink="http://www.w3.org/1999/xlink" xmlns="http://www.w3.org/2000/svg" viewBox="0 0 116.53 41.66" width="116.53"  height="41.66" ><defs><style>.cls-1{fill:#ff8000;}.cls-2{fill:#ffce00;}.cls-3{fill:#ff0024;}.cls-4{fill:#fff;}</style></defs><g id="Layer_2" data-name="Layer 2"><g id="Layer_1-2" data-name="Layer 1"><circle class="cls-1" cx="20.83" cy="20.83" r="20.83"/><path class="cls-2" d="M20.87,1.16A17.41,17.41,0,0,0,3.46,18.56a17.93,17.93,0,0,0,.22,2.76c2.25-5.88,8.4-10.1,15.64-10.1a16.91,16.91,0,0,1,14.21,7.34h0a6.89,6.89,0,0,1,4.62,1.61c0-.53.07-1.06.07-1.61a17.4,17.4,0,0,0-17.4-17.4"/><path class="cls-3" d="M38.2,20.17a6.89,6.89,0,0,0-4.62-1.61h0c-5.12,0-10.51,4.48-12,10a8.39,8.39,0,0,0,1,7.38c-.52.05-1.05.07-1.58.07A17.41,17.41,0,0,1,3.68,21.32a13.86,13.86,0,0,0-.92,4.95A14.38,14.38,0,0,0,7.84,37.11a20.75,20.75,0,0,0,13,4.55,20.79,20.79,0,0,0,15.66-7.1,20.49,20.49,0,0,0,3.26-5,9.16,9.16,0,0,0,.33-1c1-3.5.17-6.58-1.88-8.35"/><path class="cls-4" d="M115.55,26.43c-3.24,0-4.73-1.66-4.73-4.9v-20h-9.93V16.39a14.21,14.21,0,0,0-25.76,0V8.48h-9.8V22.42c0,2.52-1.32,4.22-3.54,4.22s-3.54-1.7-3.54-4.22V8.48H48.32V22.55c0,8.61,5.28,14,13.47,14,6.57,0,11.26-3.65,12.8-9.56a14.2,14.2,0,0,0,26.76.22c1.47,6.32,6.25,9.12,12.67,9.12h2.51V26.43ZM88,26.64a4.27,4.27,0,1,1,4.26-4.26A4.27,4.27,0,0,1,88,26.64Z"/></g></g></svg>