<svg xmlns="http://www.w3.org/2000/svg" width="180" height="27" viewBox="0 0 180 27"><defs><style>.a{fill:#fff;}.b{fill:#ff0006;}.c{fill:#ff7600;}.d{fill:#ffcb00;}</style></defs><g transform="translate(0)"><path class="a" d="M127.183,9.73c4.047,0,6.572.388,6.572,6.086,0,2.493-1.327,3.95-4.435,3.95h-7.252c0,4.047.745,5.05,3.237,5.05a56.842,56.842,0,0,0,8.094-.324v1.819a29.733,29.733,0,0,1-8.094.906c-4.37,0-5.665-2.111-5.665-8.845C119.672,10.7,121.874,9.73,127.183,9.73ZM129.32,17.4c1.424,0,2.04-.518,2.04-1.586,0-3.4-.647-3.691-4.144-3.691-3.658,0-5.18.032-5.18,5.277Z" transform="translate(-42.248 -3.392)"/><path class="a" d="M151.015,6.18a19.869,19.869,0,0,1,6.345,1.3V0h2.363V23.664h-1.716l-.648-1.946a14.262,14.262,0,0,1-6.345,2.108c-4.694,0-5.665-4.773-5.665-8.729C145.35,10.72,146.127,6.18,151.015,6.18Zm0,15.279a16.166,16.166,0,0,0,6.345-1.5V9.423a22.4,22.4,0,0,0-6.345-.843c-2.072,0-3.237,1.265-3.237,6.55C147.746,19.345,148.911,21.459,151.015,21.459Z" transform="translate(-51.327)"/><path class="a" d="M171,7.863l3.205-.584.583-4.8H176.6v4.8h5.018v2.4H176.6v8.7c0,2.821.745,3.47,1.845,3.729,0,0,2.655.688,2.881.688V24.52h-2.849c-2.493,0-4.273-1.557-4.273-6.136v-8.7H171Z" transform="translate(-60.382 -0.874)"/><path class="a" d="M198.281,9.73c4.047,0,6.572.388,6.572,6.086,0,2.493-1.327,3.95-4.435,3.95h-7.252c0,4.047.745,5.05,3.27,5.05a56.843,56.843,0,0,0,8.094-.324v1.819a29.732,29.732,0,0,1-8.094.906c-4.37,0-5.665-2.111-5.665-8.845C190.77,10.7,192.971,9.73,198.281,9.73Zm2.137,7.673c1.424,0,2.04-.518,2.04-1.586,0-3.4-.647-3.691-4.144-3.691-3.658,0-5.148.032-5.148,5.277Z" transform="translate(-67.365 -3.392)"/><path class="a" d="M222.1,9.68a52.29,52.29,0,0,1,7.388.855v1.748s-4.532-.194-7.388-.194c-1.942,0-3.27.356-3.27,6.475,0,4.953.939,6.248,3.27,6.248,2.978,0,7.608-.356,7.608-.356v1.819a27.537,27.537,0,0,1-7.608.939c-3.237,0-5.665-1.23-5.665-8.78S218.793,9.68,222.1,9.68Z" transform="translate(-76.451 -3.374)"/><path class="a" d="M241.326.05h2.37v8.4c1.975-1.135,3.723-2.3,6.345-2.3a5.22,5.22,0,0,1,5.316,5.512V23.682h-2.4V11.691c0-2.14-1.23-3.113-2.92-3.113-2.59,0-3.885.649-6.345,1.848V23.682h-2.4Z" transform="translate(-85.218 -0.018)"/><path class="b" d="M266,32.84h7.925v2.4H266Z" transform="translate(-93.925 -11.539)"/><ellipse class="c" cx="12.872" cy="12.891" rx="12.872" ry="12.891" transform="translate(0 1.217)"/><path class="d" d="M14.065,3A10.755,10.755,0,0,0,3.31,13.748a10.6,10.6,0,0,0,.136,1.7A10.188,10.188,0,0,1,13.1,9.2a10.457,10.457,0,0,1,8.786,4.532h0a4.241,4.241,0,0,1,2.855,1c0-.33.045-.647.045-.991A10.761,10.761,0,0,0,14.065,3" transform="translate(-1.167 -1.058)"/><path class="b" d="M24.538,20.586a4.241,4.241,0,0,0-2.855-1h0c-3.166,0-6.475,2.771-7.446,6.158a5.18,5.18,0,0,0,.6,4.532c-.324,0-.647.045-.978.045A10.754,10.754,0,0,1,3.243,21.262a8.456,8.456,0,0,0-.6,3.125,8.89,8.89,0,0,0,3.134,6.663,12.859,12.859,0,0,0,17.709-1.573A13.06,13.06,0,0,0,25.5,26.368a6.369,6.369,0,0,0,.207-.647,4.927,4.927,0,0,0-1.165-5.18" transform="translate(-0.931 -6.867)"/><path class="a" d="M87.659,18.779c-2,0-2.927-1.031-2.927-3.036V3.42H78.594v9.146a8.767,8.767,0,0,0-15.909,0V7.688h-6.06V16.3c0,1.557-.816,2.594-2.188,2.594s-2.188-1.051-2.188-2.594V7.688H46.11v8.692c0,5.332,3.237,8.685,8.327,8.685a7.692,7.692,0,0,0,7.912-5.915,8.768,8.768,0,0,0,16.537.136c.906,3.892,3.885,5.643,7.828,5.643h1.554V18.779Zm-17.016.13a2.64,2.64,0,1,1,2.635-2.633A2.638,2.638,0,0,1,70.643,18.909Z" transform="translate(-16.288 -1.206)"/></g></svg>