<svg width="48" height="48" viewBox="0 0 48 48" fill="none" xmlns="http://www.w3.org/2000/svg">
<g clip-path="url(#clip0_1_2)">
<path d="M24 48C37.2548 48 48 37.2548 48 24C48 10.7452 37.2548 0 24 0C10.7452 0 0 10.7452 0 24C0 37.2548 10.7452 48 24 48Z" fill="#FF8000"/>
<path d="M24 1.3C18.6865 1.32644 13.5996 3.45578 9.85175 7.2224C6.10387 10.989 3.99993 16.0864 4 21.4C4 22.5 4.1 23.5 4.2 24.6C6.8 17.8 13.9 12.9 22.3 12.9C25.5095 12.8496 28.6809 13.6005 31.527 15.0847C34.3732 16.5689 36.8042 18.7395 38.6 21.4H38.7C40.6218 21.3682 42.495 22.0044 44 23.2C44.083 22.6038 44.1164 22.0017 44.1 21.4C44.1 16.0692 41.9823 10.9566 38.2128 7.18716C34.4434 3.41768 29.3309 1.3 24 1.3Z" fill="#FFCE00"/>
<path d="M44 23.2C42.4951 22.0044 40.6218 21.3682 38.7 21.4H38.6C32.7 21.4 26.5 26.5 24.7 32.9C24.2344 34.3139 24.1005 35.816 24.3085 37.29C24.5166 38.7639 25.0612 40.1703 25.9 41.4H24C19.2514 41.3737 14.6638 39.6753 11.0429 36.603C7.42201 33.5307 4.99922 29.281 4.20001 24.6C3.56143 26.4336 3.22374 28.3585 3.20001 30.3C3.21529 32.6774 3.74103 35.0237 4.74168 37.1803C5.74232 39.3368 7.19452 41.2533 9.00001 42.8C11.2971 44.5408 13.8646 45.8921 16.6 46.8C18.9822 47.611 21.4836 48.0166 24 48C27.4118 47.9971 30.7834 47.2639 33.8881 45.8495C36.9929 44.4351 39.7588 42.3724 42 39.8C43.56 38.0756 44.8421 36.1189 45.8 34C45.9 33.6 46.1 33.3 46.2 32.9C47.3 28.8 46.4 25.3 44 23.2Z" fill="#FF0024"/>
</g>
<defs>
<clipPath id="clip0_1_2">
<rect width="48" height="48" fill="white"/>
</clipPath>
</defs>
</svg>
